<!DOCTYPE svg PUBLIC "-//W3C//DTD SVG 1.1//EN" "http://www.w3.org/Graphics/SVG/1.1/DTD/svg11.dtd">
<!-- Uploaded to: SVG Repo, www.svgrepo.com, Transformed by: SVG Repo Mixer Tools -->
<svg fill="#929090" height="800px" width="800px" version="1.1" id="Layer_1" xmlns="http://www.w3.org/2000/svg" xmlns:xlink="http://www.w3.org/1999/xlink" viewBox="-49.15 -49.15 589.82 589.82" xml:space="preserve" transform="matrix(1, 0, 0, 1, 0, 0)">
<g id="SVGRepo_bgCarrier" stroke-width="0"/>
<g id="SVGRepo_tracerCarrier" stroke-linecap="round" stroke-linejoin="round" stroke="#CCCCCC" stroke-width="1.9660799999999998"> <g> <g> <path d="M32.297,0l90.583,78.172V40.96c0-11.305,9.175-20.48,20.48-20.48s20.48,9.175,20.48,20.48v81.92 c0,0.983-0.43,1.802-0.553,2.744c-0.205,1.413-0.348,2.785-0.84,4.157c-0.512,1.393-1.27,2.56-2.048,3.789 c-0.492,0.778-0.696,1.679-1.311,2.417c-0.184,0.225-0.471,0.307-0.676,0.512c-1.454,1.597-3.195,2.806-5.079,3.891 c-0.594,0.348-1.085,0.881-1.72,1.167c-2.539,1.126-5.304,1.802-8.253,1.802H61.44c-11.305,0-20.48-9.175-20.48-20.48 c0-11.305,9.175-20.48,20.48-20.48h26.849L0,26.214V491.52h20.48v-307.2h81.92v307.2h40.96V225.28h81.92v266.24h40.96v-204.8 h81.92v204.8h40.96V368.64h81.92v122.88h20.48V0H32.297z"/> </g> </g> </g>
<g id="SVGRepo_iconCarrier"> <g> <g> <path d="M32.297,0l90.583,78.172V40.96c0-11.305,9.175-20.48,20.48-20.48s20.48,9.175,20.48,20.48v81.92 c0,0.983-0.43,1.802-0.553,2.744c-0.205,1.413-0.348,2.785-0.84,4.157c-0.512,1.393-1.27,2.56-2.048,3.789 c-0.492,0.778-0.696,1.679-1.311,2.417c-0.184,0.225-0.471,0.307-0.676,0.512c-1.454,1.597-3.195,2.806-5.079,3.891 c-0.594,0.348-1.085,0.881-1.72,1.167c-2.539,1.126-5.304,1.802-8.253,1.802H61.44c-11.305,0-20.48-9.175-20.48-20.48 c0-11.305,9.175-20.48,20.48-20.48h26.849L0,26.214V491.52h20.48v-307.2h81.92v307.2h40.96V225.28h81.92v266.24h40.96v-204.8 h81.92v204.8h40.96V368.64h81.92v122.88h20.48V0H32.297z"/> </g> </g> </g>
</svg>