<!DOCTYPE svg PUBLIC "-//W3C//DTD SVG 1.1//EN" "http://www.w3.org/Graphics/SVG/1.1/DTD/svg11.dtd">
<!-- Uploaded to: SVG Repo, www.svgrepo.com, Transformed by: SVG Repo Mixer Tools -->
<svg fill="#e81111" height="800px" width="800px" version="1.1" id="Layer_1" xmlns="http://www.w3.org/2000/svg" xmlns:xlink="http://www.w3.org/1999/xlink" viewBox="0 0 512 512" xml:space="preserve" stroke="#e81111">
<g id="SVGRepo_bgCarrier" stroke-width="0"/>
<g id="SVGRepo_tracerCarrier" stroke-linecap="round" stroke-linejoin="round"/>
<g id="SVGRepo_iconCarrier"> <g> <g> <path d="M241.198,14.836c-9.083,0-16.447,7.364-16.447,16.447v95.556h-24.122V31.283c0-9.083-7.364-16.447-16.447-16.447 c-9.083,0-16.447,7.364-16.447,16.447v95.556h-24.122V31.283c0-9.083-7.364-16.447-16.447-16.447 c-9.083,0-16.447,7.364-16.447,16.447v142.125c0,29.162,23.931,53.209,53.092,53.209h3.924v268.935 c0,9.083,7.364,16.447,16.447,16.447c9.083,0,16.447-7.364,16.447-16.447V226.617h3.842c29.16,0,53.174-24.049,53.174-53.209 V31.283C257.645,22.2,250.281,14.836,241.198,14.836z"/> </g> </g> <g> <g> <path d="M359.684,7.581c-11.39-8.6-26.645-9.988-39.42-3.626S299.31,23.134,299.31,37.406v458.147 c0,9.083,7.364,16.447,16.447,16.447c9.083,0,16.447-7.364,16.447-16.447V290.212h52.303c9.083,0,16.774-7.87,16.774-16.954 V90.779C401.281,58.27,385.628,27.168,359.684,7.581z"/> </g> </g> </g>
</svg>